<?xml version="1.0" encoding="utf-8"?>
<!-- Generator: Adobe Illustrator 24.0.1, SVG Export Plug-In . SVG Version: 6.00 Build 0)  -->
<svg version="1.1" id="Camada_1" xmlns="http://www.w3.org/2000/svg" xmlns:xlink="http://www.w3.org/1999/xlink" x="0px" y="0px"
	 width="28px" height="28px" viewBox="0 0 28 28" style="enable-background:new 0 0 28 28;" xml:space="preserve">
<style type="text/css">
	.st0{opacity:0;fill:none;stroke:#12A454;stroke-width:3;stroke-linecap:round;stroke-linejoin:round;}
	.st1{opacity:0;fill-rule:evenodd;clip-rule:evenodd;fill:#12A454;}
	.st2{fill:#FFFFFF;}
</style>
<path class="st0" d="M14,2C7.4,2,2,7.4,2,14c0,6.6,5.4,12,12,12c6.6,0,12-5.4,12-12C26,7.4,20.6,2,14,2z"/>
<path class="st1" d="M14,6.5c-0.6,0-1.1,0.5-1.1,1.1v5.4H7.6c-0.6,0-1.1,0.5-1.1,1.1s0.5,1.1,1.1,1.1h5.4v5.4c0,0.6,0.5,1.1,1.1,1.1
	s1.1-0.5,1.1-1.1v-5.4h5.4c0.6,0,1.1-0.5,1.1-1.1s-0.5-1.1-1.1-1.1h-5.4V7.6C15.1,7,14.6,6.5,14,6.5z"/>
<g>
	<path class="st2" d="M14,8.5c-3,0-5.4,2.4-5.4,5.4s2.4,5.4,5.4,5.4s5.4-2.4,5.4-5.4l0,0C19.4,11,17,8.5,14,8.5z"/>
	<path class="st2" d="M14,6.9c-0.7,0-1.3-0.7-1.3-1.6c0,0,0,0,0,0V2.8c0-0.9,0.6-1.6,1.3-1.6c0.7,0,1.3,0.7,1.3,1.6v2.6
		C15.3,6.2,14.7,6.9,14,6.9C14,6.9,14,6.9,14,6.9z"/>
	<path class="st2" d="M14,21.1c-0.7,0-1.3,0.7-1.3,1.6c0,0,0,0,0,0v2.6c0,0.9,0.6,1.6,1.3,1.6c0.7,0,1.3-0.7,1.3-1.6l0,0v-2.6
		C15.3,21.8,14.7,21.1,14,21.1C14,21.1,14,21.1,14,21.1z"/>
	<path class="st2" d="M20.2,7.7c-0.5-0.5-0.5-1.4,0-1.9l1.5-1.5c0.5-0.5,1.4-0.4,1.9,0.1c0.4,0.5,0.4,1.3,0,1.8l-1.5,1.5
		C21.6,8.3,20.7,8.3,20.2,7.7z"/>
	<path class="st2" d="M7.8,20.2c-0.5-0.5-1.4-0.5-1.9,0l-1.5,1.5c-0.5,0.5-0.4,1.4,0.1,1.9C5,24,5.7,24,6.3,23.6l1.5-1.5
		C8.3,21.6,8.3,20.7,7.8,20.2z"/>
	<path class="st2" d="M21.1,14c0-0.7,0.7-1.3,1.6-1.3c0,0,0,0,0,0h2.6c0.9,0,1.6,0.6,1.6,1.3c0,0.7-0.7,1.3-1.6,1.3l0,0h-2.6
		C21.8,15.3,21.1,14.7,21.1,14C21.1,14,21.1,14,21.1,14z"/>
	<path class="st2" d="M6.9,14c0-0.7-0.7-1.3-1.6-1.3c0,0,0,0,0,0H2.8c-0.9,0-1.6,0.6-1.6,1.3c0,0.7,0.7,1.3,1.6,1.3h2.6
		C6.2,15.3,6.9,14.7,6.9,14C6.9,14,6.9,14,6.9,14z"/>
	<path class="st2" d="M20.2,20.2c0.5-0.5,1.4-0.5,1.9,0l1.5,1.5c0.5,0.5,0.4,1.4-0.1,1.9c-0.5,0.4-1.3,0.4-1.8,0l-1.5-1.5
		C19.7,21.6,19.7,20.7,20.2,20.2z"/>
	<path class="st2" d="M7.8,7.7c0.5-0.5,0.5-1.4,0-1.9L6.3,4.4C5.7,3.9,4.9,3.9,4.4,4.5C3.9,5,3.9,5.7,4.4,6.2l1.5,1.5
		C6.4,8.3,7.2,8.3,7.8,7.7z"/>
</g>
</svg>
