<?xml version="1.0" encoding="utf-8"?>
<!-- Generator: Adobe Illustrator 24.0.1, SVG Export Plug-In . SVG Version: 6.00 Build 0)  -->
<svg version="1.1" id="Camada_1" xmlns="http://www.w3.org/2000/svg" xmlns:xlink="http://www.w3.org/1999/xlink" x="0px" y="0px"
	 viewBox="0 0 13.16 20.4" style="enable-background:new 0 0 13.16 20.4;" xml:space="preserve">
<style type="text/css">
	.st0{fill:#49AA26;}
</style>
<path class="st0" d="M13.15,13.73c-0.01,0.78-0.24,1.55-0.68,2.2c-0.49,0.74-1.16,1.33-1.95,1.73c-0.93,0.49-1.95,0.77-3,0.84v1.9
	H5.75v-1.9c-1.48-0.07-2.91-0.54-4.13-1.38c-1.01-0.7-1.6-1.86-1.57-3.09h3.31c0.04,0.57,0.28,1.11,0.68,1.52
	c0.48,0.43,1.07,0.69,1.71,0.75v-5.15c-1.01-0.21-2.02-0.47-3-0.8C2,10.08,1.33,9.63,0.8,9.04C0.23,8.36-0.05,7.48,0.01,6.6
	c-0.02-1.26,0.57-2.45,1.57-3.2c1.19-0.91,2.63-1.43,4.13-1.5V0h1.77v1.9c1.38,0.05,2.71,0.5,3.82,1.31c0.96,0.71,1.57,1.81,1.66,3
	H9.65C9.59,5.72,9.36,5.27,9,4.93c-0.42-0.41-0.95-0.69-1.52-0.8v5.06c1.02,0.19,2.02,0.46,3,0.79c0.74,0.26,1.4,0.7,1.92,1.29
	C12.96,11.96,13.22,12.84,13.15,13.73z M3.15,6.46C3.12,7.03,3.36,7.59,3.8,7.96c0.57,0.41,1.21,0.71,1.9,0.87V4.1
	C5.01,4.14,4.36,4.39,3.83,4.82C3.37,5.24,3.12,5.84,3.15,6.46z M7.47,16.3c0.7-0.06,1.35-0.35,1.87-0.82
	c0.44-0.42,0.68-1,0.68-1.61c0.03-0.57-0.22-1.12-0.67-1.47c-0.56-0.41-1.19-0.71-1.87-0.86L7.47,16.3z"/>
</svg>
