<?xml version="1.0" encoding="utf-8"?>
<!-- Generator: Adobe Illustrator 24.0.1, SVG Export Plug-In . SVG Version: 6.00 Build 0)  -->
<svg version="1.1" id="Camada_1" xmlns="http://www.w3.org/2000/svg" xmlns:xlink="http://www.w3.org/1999/xlink" x="0px" y="0px"
	 viewBox="0 0 28 28" style="enable-background:new 0 0 28 28;" xml:space="preserve">
<style type="text/css">
	.st0{opacity:0;fill:none;stroke:#12A454;stroke-width:3;stroke-linecap:round;stroke-linejoin:round;}
	.st1{opacity:0;fill-rule:evenodd;clip-rule:evenodd;fill:#12A454;}
	.st2{fill:#FFFFFF;}
</style>
<path class="st0" d="M14,2C7.4,2,2,7.4,2,14c0,6.6,5.4,12,12,12c6.6,0,12-5.4,12-12C26,7.4,20.6,2,14,2z"/>
<path class="st1" d="M14,6.5c-0.6,0-1.1,0.5-1.1,1.1v5.4H7.6c-0.6,0-1.1,0.5-1.1,1.1s0.5,1.1,1.1,1.1h5.4v5.4c0,0.6,0.5,1.1,1.1,1.1
	s1.1-0.5,1.1-1.1v-5.4h5.4c0.6,0,1.1-0.5,1.1-1.1s-0.5-1.1-1.1-1.1h-5.4V7.6C15.1,7,14.6,6.5,14,6.5z"/>
<path class="st2" d="M18.8,14.8H2.7c-0.5,0-0.8-0.4-0.8-0.8c0,0,0,0,0,0l0,0v-0.1c0-0.4,0.4-0.7,0.8-0.7h16.2c0.5,0,0.9,0.3,0.9,0.8
	c0,0,0,0,0,0c0,0.5-0.3,0.9-0.7,1C19,14.8,18.9,14.8,18.8,14.8z"/>
<path class="st2" d="M15,19.5c-0.2,0-0.5-0.1-0.6-0.3c-0.3-0.3-0.3-0.9,0-1.2l0,0l4.1-4.1l-4.1-4.1c-0.3-0.3-0.3-0.9,0-1.2
	c0,0,0,0,0,0l0,0c0.3-0.3,0.9-0.3,1.2,0l4.6,4.7c0.3,0.3,0.3,0.9,0,1.2l0,0l-4.6,4.8C15.4,19.4,15.2,19.5,15,19.5z"/>
<path class="st2" d="M14,26.9c-5.3,0-10-3.3-12-8.3c-0.2-0.4,0-0.9,0.4-1.1l0,0c0.4-0.2,0.9-0.1,1.2,0.4c0,0,0,0.1,0,0.1l0,0
	c2.3,5.8,8.7,8.6,14.4,6.4c5.7-2.2,8.5-8.7,6.4-14.5c0,0,0,0,0-0.1C22,3.9,15.5,1.1,9.8,3.4C7,4.6,4.7,6.8,3.6,9.7
	c-0.2,0.4-0.6,0.6-1.1,0.5h0C2,10.1,1.8,9.6,2,9.1c0,0,0,0,0,0l0,0l0,0l0,0c2.6-6.7,10.1-10,16.7-7.4c6.6,2.6,9.8,10.2,7.2,16.9
	C24,23.6,19.3,26.9,14,26.9z"/>
</svg>
